<?xml version="1.0" encoding="utf-8"?>
<!DOCTYPE svg PUBLIC "-//W3C//DTD SVG 1.1//EN" "http://www.w3.org/Graphics/SVG/1.1/DTD/svg11.dtd" [
	<!ENTITY ns_extend "http://ns.adobe.com/Extensibility/1.0/">
	<!ENTITY ns_ai "http://ns.adobe.com/AdobeIllustrator/10.0/">
	<!ENTITY ns_graphs "http://ns.adobe.com/Graphs/1.0/">
	<!ENTITY ns_vars "http://ns.adobe.com/Variables/1.0/">
	<!ENTITY ns_imrep "http://ns.adobe.com/ImageReplacement/1.0/">
	<!ENTITY ns_sfw "http://ns.adobe.com/SaveForWeb/1.0/">
	<!ENTITY ns_custom "http://ns.adobe.com/GenericCustomNamespace/1.0/">
	<!ENTITY ns_adobe_xpath "http://ns.adobe.com/XPath/1.0/">
]>
<svg version="1.1" id="Layer_1" xmlns:x="&ns_extend;" xmlns:i="&ns_ai;" xmlns:graph="&ns_graphs;"
	 xmlns="http://www.w3.org/2000/svg" xmlns:xlink="http://www.w3.org/1999/xlink" x="0px" y="0px" viewBox="0 0 78.7 63.8"
	 style="enable-background:new 0 0 78.7 63.8;" xml:space="preserve">
<switch>
	<g i:extraneous="self">
		<g>
			<path fill="#efefef" d="M35,7.1L30.7,0C28.3,1.5,0,12.2,0,39.6c0,7.2,0.3,24.2,18.9,24.2c11.2,0,13.9-10.3,13.9-13.6c0-22-21.4-14.2-21.4-14.2
				C11.5,18,31.3,9.2,35,7.1z"/>
		</g>
		<g>
			<path fill="#efefef" d="M78.7,7.1L74.4,0C72,1.5,43.7,12.2,43.7,39.6c0,7.2,0.3,24.2,18.9,24.2c11.2,0,13.9-10.3,13.9-13.6
				c0-22-21.4-14.2-21.4-14.2C55.2,18,75,9.2,78.7,7.1z"/>
		</g>
	</g>
</switch>
</svg>
