<?xml version="1.0" encoding="utf-8"?>
<!DOCTYPE svg PUBLIC "-//W3C//DTD SVG 1.1//EN" "http://www.w3.org/Graphics/SVG/1.1/DTD/svg11.dtd" [
	<!ENTITY ns_extend "http://ns.adobe.com/Extensibility/1.0/">
	<!ENTITY ns_ai "http://ns.adobe.com/AdobeIllustrator/10.0/">
	<!ENTITY ns_graphs "http://ns.adobe.com/Graphs/1.0/">
	<!ENTITY ns_vars "http://ns.adobe.com/Variables/1.0/">
	<!ENTITY ns_imrep "http://ns.adobe.com/ImageReplacement/1.0/">
	<!ENTITY ns_sfw "http://ns.adobe.com/SaveForWeb/1.0/">
	<!ENTITY ns_custom "http://ns.adobe.com/GenericCustomNamespace/1.0/">
	<!ENTITY ns_adobe_xpath "http://ns.adobe.com/XPath/1.0/">
]>
<svg version="1.1" id="Layer_1" xmlns:x="&ns_extend;" xmlns:i="&ns_ai;" xmlns:graph="&ns_graphs;"
	 xmlns="http://www.w3.org/2000/svg" xmlns:xlink="http://www.w3.org/1999/xlink" x="0px" y="0px" viewBox="0 0 49.9 24"
	 style="enable-background:new 0 0 49.9 24;" xml:space="preserve">
<style type="text/css">
	.st0{fill:#FFFFFF;}
</style>
<switch>
	<g i:extraneous="self">
		<g id="miu">
			<g id="editor_list_view_hambuger_menu_glyph">
				<g>
					<path id="path-1" class="st0" d="M1.1,0C0.5,0,0,0.4,0,1v2c0,0.6,0.5,1,1.1,1h47.7c0.6,0,1.1-0.4,1.1-1V1c0-0.6-0.5-1-1.1-1
						H1.1z M1.1,10C0.5,10,0,10.4,0,11v2c0,0.6,0.5,1,1.1,1h47.7c0.6,0,1.1-0.4,1.1-1v-2c0-0.6-0.5-1-1.1-1H1.1z M1.1,20
						C0.5,20,0,20.4,0,21v2c0,0.6,0.5,1,1.1,1h47.7c0.6,0,1.1-0.4,1.1-1v-2c0-0.6-0.5-1-1.1-1H1.1z"/>
				</g>
				<g>
					<path id="path-1_1_" class="st0" d="M1.1,0C0.5,0,0,0.4,0,1v2c0,0.6,0.5,1,1.1,1h47.7c0.6,0,1.1-0.4,1.1-1V1c0-0.6-0.5-1-1.1-1
						H1.1z M1.1,10C0.5,10,0,10.4,0,11v2c0,0.6,0.5,1,1.1,1h47.7c0.6,0,1.1-0.4,1.1-1v-2c0-0.6-0.5-1-1.1-1H1.1z M1.1,20
						C0.5,20,0,20.4,0,21v2c0,0.6,0.5,1,1.1,1h47.7c0.6,0,1.1-0.4,1.1-1v-2c0-0.6-0.5-1-1.1-1H1.1z"/>
				</g>
			</g>
		</g>
	</g>
</switch>
</svg>
